<svg width="909" height="143" viewBox="0 0 909 143" fill="none" xmlns="http://www.w3.org/2000/svg">
<path d="M32.06 113.36H81.02C84.98 113.36 87.86 113.84 89.66 114.8C91.46 115.64 92.66 117.02 93.26 118.94C93.86 120.86 94.16 123.44 94.16 126.68C94.16 129.8 93.86 132.32 93.26 134.24C92.66 136.16 91.64 137.48 90.2 138.2C87.92 139.4 84.8 140 80.84 140H16.04C7.64 140 2.72 137.72 1.28 133.16C0.560001 131.24 0.200001 128.18 0.200001 123.98V23.9C0.200001 21.14 0.26 19.1 0.38 17.78C0.62 16.34 1.22 14.72 2.18 12.92C3.86 9.67999 8.54 8.05999 16.22 8.05999C24.62 8.05999 29.6 10.28 31.16 14.72C31.76 16.76 32.06 19.88 32.06 24.08V113.36ZM105.845 60.98C105.845 58.22 105.905 56.18 106.025 54.86C106.265 53.42 106.805 51.8 107.645 50C109.325 46.88 114.005 45.32 121.685 45.32C127.445 45.32 131.525 46.34 133.925 48.38C135.965 50.06 137.045 52.64 137.165 56.12C137.285 57.32 137.345 59.06 137.345 61.34V124.34C137.345 127.1 137.225 129.2 136.985 130.64C136.865 131.96 136.325 133.52 135.365 135.32C133.805 138.44 129.185 140 121.505 140C113.945 140 109.325 138.38 107.645 135.14C106.805 133.34 106.265 131.78 106.025 130.46C105.905 129.14 105.845 127.04 105.845 124.16V60.98ZM135.365 27.68C134.525 29.36 132.965 30.56 130.685 31.28C128.405 32 125.345 32.36 121.505 32.36C117.785 32.36 114.785 32 112.505 31.28C110.225 30.56 108.605 29.3 107.645 27.5C106.805 25.7 106.265 24.14 106.025 22.82C105.905 21.38 105.845 19.28 105.845 16.52C105.845 13.76 105.905 11.72 106.025 10.4C106.265 8.95999 106.805 7.39999 107.645 5.71999C109.325 2.47999 114.005 0.859989 121.685 0.859989C129.245 0.859989 133.805 2.47999 135.365 5.71999C136.325 7.52 136.865 9.14 136.985 10.58C137.225 11.9 137.345 13.94 137.345 16.7C137.345 19.46 137.225 21.56 136.985 23C136.865 24.32 136.325 25.88 135.365 27.68ZM268.903 77L257.203 76.28V101.12C257.203 104.36 257.683 106.7 258.643 108.14C259.723 109.58 261.643 110.3 264.403 110.3C267.283 110.3 269.443 110.42 270.883 110.66C272.443 110.78 274.003 111.32 275.563 112.28C278.443 113.84 279.883 117.86 279.883 124.34C279.883 131.9 278.203 136.52 274.843 138.2C273.043 139.04 271.423 139.58 269.983 139.82C268.663 139.94 266.683 140 264.043 140C252.043 140 242.683 136.88 235.963 130.64C229.243 124.4 225.883 115.16 225.883 102.92V76.28C220.123 76.76 215.323 77 211.483 77L195.103 76.28V101.12C195.103 104.36 195.583 106.7 196.543 108.14C197.623 109.58 199.543 110.3 202.303 110.3C205.183 110.3 207.343 110.42 208.783 110.66C210.343 110.78 211.963 111.32 213.643 112.28C216.403 113.84 217.783 117.86 217.783 124.34C217.783 131.9 216.103 136.52 212.743 138.2C210.943 139.04 209.323 139.58 207.883 139.82C206.563 139.94 204.583 140 201.943 140C189.943 140 180.583 136.88 173.863 130.64C167.143 124.4 163.783 115.16 163.783 102.92V76.28C161.383 76.64 158.863 76.82 156.223 76.82C153.703 76.82 151.543 75.8 149.743 73.76C148.063 71.72 147.223 68.24 147.223 63.32C147.223 58.4 147.523 54.86 148.123 52.7C148.723 50.42 149.563 48.8 150.643 47.84C152.563 46.28 154.963 45.5 157.843 45.5L163.783 46.22V27.68C163.783 24.92 163.843 22.88 163.963 21.56C164.203 20.24 164.803 18.8 165.763 17.24C167.323 14.24 171.943 12.74 179.623 12.74C187.783 12.74 192.643 14.96 194.203 19.4C194.803 21.32 195.103 24.38 195.103 28.58V45.68C200.743 45.56 206.083 45.5 211.123 45.5L225.883 45.68V27.68C225.883 24.92 225.943 22.88 226.063 21.56C226.303 20.24 226.843 18.8 227.683 17.24C229.363 14.24 234.043 12.74 241.723 12.74C249.883 12.74 254.683 14.96 256.123 19.4C256.843 21.32 257.203 24.38 257.203 28.58V46.22C262.483 45.74 266.443 45.5 269.083 45.5C271.843 45.5 273.883 45.62 275.203 45.86C276.643 45.98 278.203 46.52 279.883 47.48C283.123 49.04 284.743 53.66 284.743 61.34C284.743 68.9 283.123 73.52 279.883 75.2C278.083 76.04 276.463 76.58 275.023 76.82C273.703 76.94 271.663 77 268.903 77ZM294.634 16.34C294.634 13.58 294.694 11.54 294.814 10.22C295.054 8.77999 295.594 7.15999 296.434 5.36C298.114 2.11999 302.794 0.499994 310.474 0.499994C317.794 0.499994 322.354 2.11999 324.154 5.36C325.114 7.15999 325.654 8.77999 325.774 10.22C326.014 11.66 326.134 13.76 326.134 16.52V99.86C326.134 104.18 326.494 106.94 327.214 108.14C327.934 109.22 329.494 109.76 331.894 109.76C334.414 109.76 336.094 109.88 336.934 110.12C337.774 110.24 338.794 110.72 339.994 111.56C342.394 113.12 343.594 117.38 343.594 124.34C343.594 131.9 342.394 136.52 339.994 138.2C336.874 140.36 329.434 140.72 317.674 139.28C308.434 138.08 302.434 135.02 299.674 130.1C296.314 124.22 294.634 114.86 294.634 102.02V16.34ZM443.203 81.32C443.203 88.64 441.343 94.1 437.623 97.7C434.023 101.18 430.003 102.92 425.563 102.92H382.903C382.903 106.28 384.883 109.1 388.843 111.38C392.803 113.66 396.763 114.8 400.723 114.8C407.683 114.8 413.143 114.08 417.103 112.64L419.083 111.92C421.963 110.6 424.363 109.94 426.283 109.94C430.123 109.94 433.423 112.64 436.183 118.04C437.743 121.28 438.523 124.04 438.523 126.32C438.523 137 425.743 142.34 400.183 142.34C391.303 142.34 383.383 140.84 376.423 137.84C369.583 134.72 364.243 130.64 360.403 125.6C352.843 115.88 349.063 105.02 349.063 93.02C349.063 77.9 353.923 65.84 363.643 56.84C373.483 47.72 385.723 43.16 400.363 43.16C417.043 43.16 429.283 49.04 437.082 60.8C441.163 67.04 443.203 73.88 443.203 81.32ZM405.223 86.54C409.783 86.54 412.063 84.62 412.063 80.78C412.063 78.02 410.983 75.8 408.823 74.12C406.783 72.44 403.783 71.6 399.823 71.6C395.983 71.6 392.143 73.22 388.303 76.46C384.463 79.58 382.543 82.94 382.543 86.54H405.223ZM582.913 105.44L586.153 103.1C590.233 100.7 593.113 99.5 594.793 99.5C598.513 99.5 602.533 102.86 606.853 109.58C609.493 113.78 610.813 117.14 610.813 119.66C610.813 122.18 609.973 124.28 608.293 125.96C606.733 127.64 604.873 129.14 602.713 130.46C600.553 131.78 598.453 133.04 596.413 134.24C594.493 135.44 590.473 137 584.353 138.92C578.233 140.84 572.293 141.8 566.533 141.8C560.893 141.8 555.133 141.08 549.253 139.64C543.493 138.08 537.493 135.56 531.253 132.08C525.133 128.48 519.613 124.16 514.693 119.12C509.773 113.96 505.693 107.42 502.453 99.5C499.333 91.46 497.773 82.76 497.773 73.4C497.773 64.04 499.333 55.58 502.453 48.02C505.573 40.34 509.533 34.04 514.333 29.12C519.253 24.08 524.833 19.88 531.073 16.52C542.833 10.04 554.653 6.8 566.533 6.8C572.173 6.8 577.873 7.7 583.633 9.5C589.513 11.18 593.953 12.92 596.953 14.72L601.273 17.24C603.433 18.56 605.113 19.64 606.313 20.48C609.433 23 610.993 25.88 610.993 29.12C610.993 32.24 609.733 35.54 607.213 39.02C602.533 45.5 598.333 48.74 594.613 48.74C592.453 48.74 589.393 47.42 585.433 44.78C580.393 40.7 573.673 38.66 565.273 38.66C557.473 38.66 549.793 41.36 542.233 46.76C538.633 49.4 535.633 53.12 533.233 57.92C530.833 62.72 529.633 68.18 529.633 74.3C529.633 80.3 530.833 85.7 533.233 90.5C535.633 95.3 538.693 99.08 542.413 101.84C549.733 107.12 557.353 109.76 565.273 109.76C568.993 109.76 572.473 109.28 575.713 108.32C579.073 107.36 581.473 106.4 582.913 105.44ZM680.686 55.22C681.406 48.5 686.146 45.14 694.906 45.14C699.586 45.14 703.066 45.5 705.346 46.22C707.626 46.94 709.186 48.2 710.026 50C710.986 51.8 711.526 53.42 711.646 54.86C711.886 56.18 712.006 58.22 712.006 60.98V123.98C712.006 126.74 711.886 128.84 711.646 130.28C711.526 131.6 711.046 133.16 710.206 134.96C708.526 138.08 704.386 139.64 697.786 139.64C691.306 139.64 686.926 138.86 684.646 137.3C682.486 135.62 681.226 133.22 680.866 130.1C676.426 136.46 668.986 139.64 658.546 139.64C648.226 139.64 638.626 134.9 629.746 125.42C620.866 115.94 616.426 104.96 616.426 92.48C616.426 79.88 620.866 68.9 629.746 59.54C638.746 50.06 648.586 45.32 659.266 45.32C663.346 45.32 667.066 46.04 670.426 47.48C673.786 48.92 676.126 50.3 677.446 51.62C678.766 52.82 679.846 54.02 680.686 55.22ZM647.926 92.66C647.926 96.62 649.486 100.22 652.606 103.46C655.726 106.58 659.506 108.14 663.946 108.14C668.386 108.14 672.046 106.52 674.926 103.28C677.926 100.04 679.426 96.5 679.426 92.66C679.426 88.7 677.986 85.04 675.106 81.68C672.346 78.32 668.566 76.64 663.766 76.64C659.086 76.64 655.246 78.32 652.246 81.68C649.366 85.04 647.926 88.7 647.926 92.66ZM727.072 131.54C724.792 130.1 723.652 127.82 723.652 124.7C723.652 121.58 725.932 116.84 730.492 110.48C731.812 108.44 733.912 107.42 736.792 107.42C739.792 107.42 743.812 108.92 748.852 111.92C753.892 114.8 758.452 116.24 762.532 116.24C769.852 116.24 773.512 114.8 773.512 111.92C773.512 109.64 769.492 107.96 761.452 106.88C753.892 105.8 746.392 102.98 738.952 98.42C735.472 96.26 732.592 92.9 730.312 88.34C728.032 83.66 726.892 78.14 726.892 71.78C726.892 52.82 739.912 43.34 765.952 43.34C774.472 43.34 783.232 45.38 792.232 49.46C796.432 51.38 798.532 53.78 798.532 56.66C798.532 59.54 797.212 63.08 794.572 67.28C791.932 71.48 789.232 73.58 786.472 73.58C785.032 73.58 782.332 72.68 778.372 70.88C774.532 69.08 770.332 68.18 765.772 68.18C758.692 68.18 755.152 69.5 755.152 72.14C755.152 75.74 759.232 78.08 767.392 79.16C775.312 80 782.992 82.28 790.432 86C793.912 87.68 796.792 90.62 799.072 94.82C801.472 98.9 802.672 104.06 802.672 110.3C802.672 116.54 801.472 121.88 799.072 126.32C796.792 130.64 793.552 133.88 789.352 136.04C781.672 139.76 772.012 141.62 760.372 141.62C748.852 141.62 737.752 138.26 727.072 131.54ZM866.979 45.5C878.979 45.5 888.939 50.06 896.859 59.18C904.899 68.3 908.919 79.46 908.919 92.66V124.34C908.919 127.1 908.799 129.2 908.559 130.64C908.439 131.96 907.899 133.52 906.939 135.32C905.379 138.44 900.759 140 893.079 140C885.759 140 881.199 138.44 879.399 135.32C878.439 133.52 877.839 131.9 877.599 130.46C877.479 129.02 877.419 126.86 877.419 123.98V92.48C877.419 87.56 876.039 83.72 873.279 80.96C870.519 78.2 866.979 76.82 862.659 76.82C858.459 76.82 854.739 78.14 851.499 80.78C848.259 83.3 846.399 86.18 845.919 89.42V124.34C845.919 127.1 845.799 129.2 845.559 130.64C845.439 131.96 844.899 133.52 843.939 135.32C842.379 138.44 837.759 140 830.079 140C822.519 140 817.899 138.38 816.219 135.14C815.379 133.34 814.839 131.78 814.599 130.46C814.479 129.14 814.419 127.04 814.419 124.16V16.52C814.419 13.76 814.479 11.72 814.599 10.4C814.839 8.95999 815.379 7.39999 816.219 5.71999C817.899 2.47999 822.579 0.859989 830.259 0.859989C837.819 0.859989 842.379 2.47999 843.939 5.71999C844.899 7.52 845.439 9.14 845.559 10.58C845.799 11.9 845.919 13.94 845.919 16.7V56.48C851.919 49.16 858.939 45.5 866.979 45.5Z" fill="#FB8500"/>
</svg>
